<svg width="14" height="14" viewBox="0 0 14 14" fill="none" xmlns="http://www.w3.org/2000/svg">
<path d="M10.2165 1.74316C9.77681 1.74316 9.35509 1.91785 9.04415 2.22878C8.73321 2.53972 8.55853 2.96144 8.55853 3.40117V10.0332C8.55853 10.4729 8.73321 10.8946 9.04415 11.2056C9.35509 11.5165 9.77681 11.6912 10.2165 11.6912C10.6563 11.6912 11.078 11.5165 11.3889 11.2056C11.6999 10.8946 11.8745 10.4729 11.8745 10.0332C11.8745 9.59346 11.6999 9.17174 11.3889 8.8608C11.078 8.54986 10.6563 8.37518 10.2165 8.37518H3.58452C3.14479 8.37518 2.72307 8.54986 2.41213 8.8608C2.1012 9.17174 1.92651 9.59346 1.92651 10.0332C1.92651 10.4729 2.1012 10.8946 2.41213 11.2056C2.72307 11.5165 3.14479 11.6912 3.58452 11.6912C4.02425 11.6912 4.44597 11.5165 4.7569 11.2056C5.06784 10.8946 5.24252 10.4729 5.24252 10.0332V3.40117C5.24252 2.96144 5.06784 2.53972 4.7569 2.22878C4.44597 1.91785 4.02425 1.74316 3.58452 1.74316C3.14479 1.74316 2.72307 1.91785 2.41213 2.22878C2.1012 2.53972 1.92651 2.96144 1.92651 3.40117C1.92651 3.8409 2.1012 4.26262 2.41213 4.57356C2.72307 4.88449 3.14479 5.05917 3.58452 5.05917H10.2165C10.6563 5.05917 11.078 4.88449 11.3889 4.57356C11.6999 4.26262 11.8745 3.8409 11.8745 3.40117C11.8745 2.96144 11.6999 2.53972 11.3889 2.22878C11.078 1.91785 10.6563 1.74316 10.2165 1.74316Z" stroke="#FDFDFD" stroke-width="1.10534" stroke-linecap="round" stroke-linejoin="round"/>
</svg>
