<svg width="29" height="29" viewBox="0 0 29 29" fill="none" xmlns="http://www.w3.org/2000/svg">
<g clip-path="url(#clip0_95_87)">
<path d="M24.6466 6.09531C24.0508 5.49915 23.3433 5.02623 22.5646 4.70357C21.7859 4.38092 20.9512 4.21484 20.1083 4.21484C19.2654 4.21484 18.4308 4.38092 17.6521 4.70357C16.8734 5.02623 16.1659 5.49915 15.57 6.09531L14.3333 7.33197L13.0966 6.09531C11.893 4.89167 10.2605 4.21547 8.55831 4.21547C6.8561 4.21547 5.22362 4.89167 4.01998 6.09531C2.81634 7.29895 2.14014 8.93144 2.14014 10.6336C2.14014 12.3358 2.81634 13.9683 4.01998 15.172L5.25664 16.4086L14.3333 25.4853L23.41 16.4086L24.6466 15.172C25.2428 14.5761 25.7157 13.8686 26.0384 13.0899C26.361 12.3112 26.5271 11.4765 26.5271 10.6336C26.5271 9.79074 26.361 8.95609 26.0384 8.17739C25.7157 7.39869 25.2428 6.69119 24.6466 6.09531V6.09531Z" stroke="#181D27" stroke-width="2.33333" stroke-linecap="round" stroke-linejoin="round"/>
</g>
<defs>
<clipPath id="clip0_95_87">
<rect width="28" height="28" fill="white" transform="translate(0.333252 0.716797)"/>
</clipPath>
</defs>
</svg>
