<svg width="29" height="29" viewBox="0 0 29 29" fill="none" xmlns="http://www.w3.org/2000/svg">
<path d="M4.1665 7.71647L7.6665 3.0498H21.6665L25.1665 7.71647M4.1665 7.71647V24.0498C4.1665 24.6686 4.41234 25.2621 4.84992 25.6997C5.28751 26.1373 5.881 26.3831 6.49984 26.3831H22.8332C23.452 26.3831 24.0455 26.1373 24.4831 25.6997C24.9207 25.2621 25.1665 24.6686 25.1665 24.0498V7.71647M4.1665 7.71647H25.1665M19.3332 12.3831C19.3332 13.6208 18.8415 14.8078 17.9663 15.683C17.0912 16.5581 15.9042 17.0498 14.6665 17.0498C13.4288 17.0498 12.2418 16.5581 11.3667 15.683C10.4915 14.8078 9.99984 13.6208 9.99984 12.3831" stroke="#181D27" stroke-width="1.75" stroke-linecap="round" stroke-linejoin="round"/>
</svg>
