<svg width="18" height="16" viewBox="0 0 18 16" fill="none" xmlns="http://www.w3.org/2000/svg">
<path d="M8.49588 0.395655C8.69996 -0.0782514 9.3719 -0.0782523 9.57598 0.395654L11.4416 4.72776C11.5267 4.92543 11.713 5.0608 11.9273 5.08068L16.6239 5.51627C17.1377 5.56393 17.3453 6.20297 16.9577 6.54351L13.4141 9.6565C13.2524 9.79854 13.1812 10.0176 13.2286 10.2275L14.2656 14.8288C14.3791 15.3322 13.8355 15.7272 13.3918 15.4637L9.33614 13.0555C9.15108 12.9457 8.92078 12.9457 8.73572 13.0555L4.68007 15.4637C4.23641 15.7272 3.6928 15.3322 3.80625 14.8288L4.8433 10.2275C4.89062 10.0176 4.81945 9.79854 4.65776 9.6565L1.11418 6.54351C0.726534 6.20297 0.934172 5.56393 1.44795 5.51627L6.14453 5.08068C6.35883 5.0608 6.54515 4.92543 6.63028 4.72776L8.49588 0.395655Z" fill="#D8D10D"/>
</svg>
